<svg width="146" height="120" viewBox="0 0 146 120" fill="none" xmlns="http://www.w3.org/2000/svg">
<path fill-rule="evenodd" clip-rule="evenodd" d="M67.9317 11H55.5C52.4624 11 50 8.53757 50 5.5C50 2.46243 52.4624 0 55.5 0H108.5C109.549 0 110.53 0.293903 111.364 0.803888C130.536 3.83582 145.5 29.1817 145.5 60C145.5 90.8183 130.536 116.164 111.364 119.196C110.53 119.706 109.549 120 108.5 120H55.5C52.4624 120 50 117.538 50 114.5C50 111.462 52.4624 109 55.5 109H63.5C65.0913 109 66.6174 108.342 67.7426 107.169C68.8678 105.997 69.5 104.408 69.5 102.75L69.5 109V96.5203L69.5 102.75C69.5 101.092 68.8678 99.5027 67.7426 98.3306C66.7318 97.2776 65.3974 96.6392 63.9829 96.5203H28.4962C25.4586 96.5203 22.9962 94.0578 22.9962 91.0203C22.9962 87.9827 25.4586 85.5203 28.4962 85.5203H69.5V85.25H87C89.8995 85.25 92.25 82.8995 92.25 80C92.25 77.1005 89.8995 74.75 87 74.75H53C52.4401 74.75 51.9006 74.8377 51.3946 75H44.5C41.4624 75 39 72.5376 39 69.5C39 66.4624 41.4624 64 44.5 64H65.8077C66.5243 63.6765 67.183 63.2024 67.7426 62.5962C68.8678 61.3772 69.5 59.7239 69.5 58L69.5 64V52L69.5 58C69.5 56.2761 68.8678 54.6228 67.7426 53.4038C67.183 52.7976 66.5243 52.3235 65.8077 52H55.5C52.4624 52 50 49.5376 50 46.5C50 43.4624 52.4624 41 55.5 41H56H69.5H90C92.7614 41 95 38.7614 95 36C95 33.2386 92.7614 31 90 31H69.5H56H39.5C36.4624 31 34 28.5376 34 25.5C34 22.4624 36.4624 20 39.5 20H66.583C67.1183 19.7302 67.6111 19.3559 68.0355 18.8891C68.9732 17.8576 69.5 16.4587 69.5 15L69.5 20V11L69.5 15C69.5 13.5413 68.9732 12.1424 68.0355 11.1109C68.0014 11.0733 67.9667 11.0364 67.9317 11ZM42 5.5C42 8.53757 39.5376 11 36.5 11H30.5C27.4624 11 25 8.53757 25 5.5C25 2.46243 27.4624 0 30.5 0H36.5C39.5376 0 42 2.46243 42 5.5ZM11.5 97C14.5376 97 17 94.5376 17 91.5C17 88.4624 14.5376 86 11.5 86H5.5C2.46243 86 0 88.4624 0 91.5C0 94.5376 2.46243 97 5.5 97H11.5ZM42 46.5C42 49.5376 39.5376 52 36.5 52H30.5C27.4624 52 25 49.5376 25 46.5C25 43.4624 27.4624 41 30.5 41H36.5C39.5376 41 42 43.4624 42 46.5ZM34.5 120C37.5376 120 40 117.538 40 114.5C40 111.462 37.5376 109 34.5 109H28.5C25.4624 109 23 111.462 23 114.5C23 117.538 25.4624 120 28.5 120H34.5Z" fill="url(#paint0_linear)"/>
<defs>
<linearGradient id="paint0_linear" x1="72.75" y1="0" x2="72.75" y2="120" gradientUnits="userSpaceOnUse">
<stop stop-color="#247EF7"/>
<stop offset="1" stop-color="#CBDEF7"/>
</linearGradient>
</defs>
</svg>
